<svg width="24" height="24" viewBox="0 0 24 24" fill="none" xmlns="http://www.w3.org/2000/svg">
<path d="M18.9509 12.6722C18.9735 15.0331 20.3459 16.3771 21.3258 17.0375C21.8469 17.3886 22.1591 18.0083 21.9163 18.5767C21.6403 19.2228 21.2035 20.1035 20.5714 20.9992C19.5324 22.4714 18.4542 23.9382 16.7556 23.9685C15.0866 23.9984 14.5499 23.009 12.6417 23.009C10.7341 23.009 10.1378 23.9382 8.55788 23.9984C6.9183 24.0586 5.66974 22.4065 4.62223 20.9396C2.48167 17.9392 0.845833 12.4612 3.04234 8.7635C4.13352 6.92719 6.08354 5.76436 8.20011 5.73454C9.81013 5.70477 11.3298 6.7847 12.314 6.7847C13.2977 6.7847 15.1443 5.48598 17.0857 5.67672C17.753 5.70364 19.4103 5.90091 20.7928 7.12122C21.3179 7.58464 21.1309 8.37224 20.6245 8.8548C19.8543 9.58874 18.934 10.8478 18.9509 12.6722ZM15.8141 3.6917C16.4527 2.94231 16.9381 1.97736 17.0883 0.957796C17.181 0.329118 16.5942 -0.153176 15.9719 0.0451592C15.0263 0.346568 14.0772 0.940396 13.4388 1.6647C12.8209 2.35733 12.2618 3.36861 12.1197 4.42739C12.0438 4.99306 12.5442 5.45254 13.1194 5.33263C14.1679 5.11404 15.1523 4.46884 15.8141 3.6917Z" fill="#1A1D1F"/>
</svg>
