<svg width="25" height="24" viewBox="0 0 25 24" fill="none" xmlns="http://www.w3.org/2000/svg">
<g clip-path="url(#clip0_37_2002)">
<g clip-path="url(#clip1_37_2002)">
<path d="M24.2459 12.27C24.2459 11.48 24.1759 10.73 24.0559 10H12.7559V14.51H19.2259C18.9359 15.99 18.0859 17.24 16.8259 18.09V21.09H20.6859C22.9459 19 24.2459 15.92 24.2459 12.27Z" fill="#4285F4"/>
<path d="M12.7549 23.9991C15.9949 23.9991 18.7049 22.9191 20.6849 21.0891L16.8249 18.0891C15.7449 18.8091 14.3749 19.2491 12.7549 19.2491C9.62492 19.2491 6.97492 17.1391 6.02492 14.2891H2.04492V17.3791C4.01492 21.2991 8.06492 23.9991 12.7549 23.9991Z" fill="#34A853"/>
<path d="M6.02586 14.2891C5.77586 13.5691 5.64586 12.7991 5.64586 11.9991C5.64586 11.1991 5.78586 10.4291 6.02586 9.70914V6.61914H2.04586C1.22586 8.23914 0.755859 10.0591 0.755859 11.9991C0.755859 13.9391 1.22586 15.7591 2.04586 17.3791L6.02586 14.2891Z" fill="#FBBC05"/>
<path d="M12.7549 4.75C14.5249 4.75 16.1049 5.36 17.3549 6.55L20.7749 3.13C18.7049 1.19 15.9949 0 12.7549 0C8.06492 0 4.01492 2.7 2.04492 6.62L6.02492 9.71C6.97492 6.86 9.62492 4.75 12.7549 4.75Z" fill="#EA4335"/>
</g>
</g>
<defs>
<clipPath id="clip0_37_2002">
<rect width="24" height="24" fill="white" transform="translate(0.5)"/>
</clipPath>
<clipPath id="clip1_37_2002">
<rect width="24" height="24" fill="white" transform="translate(0.5)"/>
</clipPath>
</defs>
</svg>
