<svg width="49" height="48" viewBox="0 0 49 48" fill="none" xmlns="http://www.w3.org/2000/svg">
<g filter="url(#filter0_ii_0_1443)">
<path d="M20.5 2.3094C22.9752 0.880339 26.0248 0.880339 28.5 2.3094L41.2846 9.6906C43.7598 11.1197 45.2846 13.7607 45.2846 16.6188V31.3812C45.2846 34.2393 43.7598 36.8803 41.2846 38.3094L28.5 45.6906C26.0248 47.1197 22.9752 47.1197 20.5 45.6906L7.71539 38.3094C5.24018 36.8803 3.71539 34.2393 3.71539 31.3812V16.6188C3.71539 13.7607 5.24018 11.1197 7.71539 9.6906L20.5 2.3094Z" fill="#272B30"/>
</g>
<rect x="22.5" y="18" width="4" height="12" rx="2" fill="white"/>
<rect x="14.5" y="20" width="4" height="8" rx="2" fill="url(#paint0_linear_0_1443)"/>
<rect x="30.5" y="20" width="4" height="8" rx="2" fill="url(#paint1_linear_0_1443)"/>
<defs>
<filter id="filter0_ii_0_1443" x="3.71484" y="0.238281" width="41.5703" height="47.5234" filterUnits="userSpaceOnUse" color-interpolation-filters="sRGB">
<feFlood flood-opacity="0" result="BackgroundImageFix"/>
<feBlend mode="normal" in="SourceGraphic" in2="BackgroundImageFix" result="shape"/>
<feColorMatrix in="SourceAlpha" type="matrix" values="0 0 0 0 0 0 0 0 0 0 0 0 0 0 0 0 0 0 127 0" result="hardAlpha"/>
<feOffset dy="-1"/>
<feGaussianBlur stdDeviation="1"/>
<feComposite in2="hardAlpha" operator="arithmetic" k2="-1" k3="1"/>
<feColorMatrix type="matrix" values="0 0 0 0 0 0 0 0 0 0 0 0 0 0 0 0 0 0 0.53 0"/>
<feBlend mode="multiply" in2="shape" result="effect1_innerShadow_0_1443"/>
<feColorMatrix in="SourceAlpha" type="matrix" values="0 0 0 0 0 0 0 0 0 0 0 0 0 0 0 0 0 0 127 0" result="hardAlpha"/>
<feOffset dy="1"/>
<feGaussianBlur stdDeviation="0.5"/>
<feComposite in2="hardAlpha" operator="arithmetic" k2="-1" k3="1"/>
<feColorMatrix type="matrix" values="0 0 0 0 0.838444 0 0 0 0 0.838444 0 0 0 0 0.838444 0 0 0 0.25 0"/>
<feBlend mode="normal" in2="effect1_innerShadow_0_1443" result="effect2_innerShadow_0_1443"/>
</filter>
<linearGradient id="paint0_linear_0_1443" x1="16.5" y1="20" x2="16.5" y2="28" gradientUnits="userSpaceOnUse">
<stop stop-color="white"/>
<stop offset="1" stop-color="#D0D0D0"/>
</linearGradient>
<linearGradient id="paint1_linear_0_1443" x1="32.5" y1="20" x2="32.5" y2="28" gradientUnits="userSpaceOnUse">
<stop stop-color="white"/>
<stop offset="1" stop-color="#D0D0D0"/>
</linearGradient>
</defs>
</svg>
